PathFileType	4	(X/Y/Z)	C:/Users/beibeiliu/ov580/test_trc/User3\sequence.21_training_dense_right.trc
DataRate	CameraRate	NumFrames	NumMarkers	Units	OrigDataRate	OrigDataStartFrame	OrigNumFrames
120	120	18	19	mm	120	62	92
Frame#	Time	ThumbCMC			ThumbMCP			ThumbIP			ThumbTip			IndexMCP			IndexPIP			IndexTip			MiddleMCP			MiddlePIP			MiddleTip			RingMCP			RingPIP			RingTip			PinkyMCP			PinkyPIP			PinkyTip			BackHand1			BackHand2			BackHand3	
		X0	Y0	Z0	X1	Y1	Z1	X2	Y2	Z2	X3	Y3	Z3	X4	Y4	Z4	X5	Y5	Z5	X6	Y6	Z6	X7	Y7	Z7	X8	Y8	Z8	X9	Y9	Z9	X10	Y10	Z10	X11	Y11	Z11	X12	Y12	Z12	X13	Y13	Z13	X14	Y14	Z14	X15	Y15	Z15	X16	Y16	Z16	X17	Y17	Z17	X18	Y18	Z18	
61	0.508333	171.481	28.6974	4.66493	168.401	45.0887	-17.3623	172.355	57.7427	-45.0778	173.24	63.4394	-62.9191	213.342	28.2393	-53.6882	224.397	35.0468	-80.805	229.369	44.251	-101.098	227.151	0.962997	-56.1178	238.242	9.62929	-83.723	248.821	11.9944	-112.191	227.579	-17.2997	-49.9087	239.513	-19.8131	-67.5086	252.902	-24.7577	-91.3069	220.351	-41.065	-35.9036	229.592	-50.5313	-49.3008	245.664	-58.2732	-70.9022	214.389	-18.249	-3.85288	207.054	-19.0474	25.9633	202.582	16.4414	7.35797	
62	0.516667	136.562	26.3839	-1.87916	128.014	36.0143	-26.6245	124.04	49.2473	-56.0145	117.434	55.7348	-71.904	175.052	44.5927	-62.8841	177.018	55.4689	-85.8841	177.142	70.1402	-109.568	202.205	35.2918	-67.0111	205.19	44.1204	-89.6734	216.834	51.7093	-120.249	212.413	13.6542	-54.2329	223.705	23.9325	-77.2247	238.992	26.6486	-100.998	217.965	-10.5419	-38.7062	232.294	-8.30374	-57.364	247.128	-7.56806	-76.4636	197.723	10.0487	-7.95776	194.281	4.65743	21.7873	171.864	29.7077	-1.99199	
63	0.525	110.251	16.7627	-11.3068	97.8927	21.8378	-35.374	86.4895	29.2273	-61.7293	76.7392	32.596	-82.1227	138.948	43.7995	-74.5525	129.24	55.8364	-98.4871	132.197	64.2107	-122.264	167.633	42.8315	-75.237	168.738	52.003	-97.9342	177.193	65.4901	-130.568	185.989	29.1936	-62.9382	195.346	39.6672	-84.138	205.301	47.9663	-106.817	199.45	10.006	-47.274	209.312	16.0246	-63.4216	227.429	22.563	-79.565	175.4	25.5186	-19.718	170.927	18.3828	12.7676	140.21	32.6564	-11.5871	
64	0.533333	92.5257	4.99599	-10.8886	74.4419	6.21195	-40.8011	61.9302	3.94729	-63.4607	54.241	3.34752	-85.8735	105.688	30.8707	-81.8812	96.467	35.6224	-111.032	95.1347	39.8418	-134.19	134.606	37.324	-86.7867	138.942	43.1712	-111.836	137.016	52.3518	-141.483	159.09	30.4928	-74.4169	168.122	41.8865	-98.7682	171.583	47.893	-118.658	176.547	17.4361	-58.2742	189.148	24.3214	-74.7151	204.038	32.1781	-88.1304	153.376	28.0733	-30.1092	151.619	26.2683	2.47348	118.779	28.7204	-17.794	
65	0.541667	78.1639	-4.00608	-14.8835	64.8915	-13.12	-39.2847	50.1094	-20.5019	-62.856	42.81	-28.9794	-81.2111	87.6151	8.24748	-88.7993	81.1071	4.43601	-117.451	74.0774	1.77568	-138.086	118.598	19.9696	-98.6449	116.537	18.9182	-121.169	112.453	20.2776	-151.022	137.435	18.1509	-86.8739	141.9	23.117	-108.906	146.992	27.7834	-134.755	159.693	11.4485	-68.5843	173.191	16.1919	-85.8946	181.673	22.4727	-100.617	134.677	23.6149	-36.6392	133.126	26.2136	-6.0834	102.966	24.193	-28.2486	
66	0.55	69.5356	-14.0442	-14.4545	58.0505	-30.6286	-33.627	43.8562	-45.6802	-58.5816	38.7568	-58.188	-72.7455	79.1839	-22.3709	-92.6372	69.0084	-32.7393	-111.051	62.9329	-44.0013	-136.644	106.534	-9.44149	-98.4782	105.784	-16.455	-124.139	105.163	-22.965	-156.177	129.586	-4.26933	-92.7183	133.91	-5.39098	-115.901	137.092	-7.98448	-138.053	150.197	-4.46515	-70.7237	159.833	-4.73807	-85.5726	175.573	0.268772	-105.337	125.486	13.2417	-47.262	124.174	22.0505	-17.244	91.44	11.4329	-31.3135	
67	0.558333	64.1628	-16.6659	-10.7529	53.4018	-37.4154	-27.3774	43.1009	-56.8931	-47.9445	31.5893	-71.7648	-56.7601	75.4285	-44.5437	-84.6624	65.2113	-61.8232	-101.323	62.3357	-76.8916	-121.501	100.156	-38.5357	-96.2179	103.076	-49.8345	-115.275	102.633	-63.8359	-141.652	126.518	-28.252	-83.4009	129.84	-36.8953	-105.92	136.218	-46.8405	-129.831	148.685	-23.8826	-64.8354	157.916	-29.1903	-86.0554	171.915	-29.8981	-99.7855	119.536	0.525407	-45.4316	121.927	18.8366	-20.2314	84.9302	1.9323	-35.948	
68	0.566667	64.2447	-11.0728	-6.32702	51.0392	-30.2121	-18.9905	30.1995	-49.9647	-35.534	19.7157	-63.7411	-44.6131	71.0924	-52.1498	-72.0253	61.7336	-70.0608	-87.7819	50.294	-88.5099	-102.488	99.3057	-54.203	-86.3341	97.15	-70.9614	-100.946	93.9247	-91.3611	-124.386	124.249	-48.1274	-74.9887	123.931	-62.358	-93.2681	128.134	-79.519	-116.588	143.963	-43.5399	-57.1253	151.354	-53.4352	-69.7121	166.091	-63.2336	-90.1088	118.503	-9.30663	-42.0552	124.343	9.8322	-23.0197	91.2562	-1.0044	-34.3241	
69	0.575	71.3441	-0.268625	-6.67069	50.4667	-12.4692	-16.3358	26.6654	-27.9165	-33.8583	12.3219	-36.7692	-38.2365	59.7303	-47.4129	-66.0528	47.592	-62.5968	-78.583	35.5122	-78.3524	-92.3585	88.869	-56.7384	-73.7574	80.7531	-75.611	-88.6307	77.057	-101.021	-107.941	114.321	-58.4851	-62.0113	110.315	-75.7339	-78.037	114.652	-98.7366	-96.4778	133.066	-60.0879	-47.1459	143.11	-73.6501	-53.8764	150.732	-89.5049	-68.1724	123.64	-18.7604	-37.9779	128.68	6.36017	-16.94	94.3085	3.82438	-27.1045	
70	0.583333	81.0218	18.2746	-2.32592	55.5012	12.067	-16.8994	28.9669	9.19037	-33.1823	12.1569	4.9896	-41.3388	56.7975	-31.162	-63.1702	38.6081	-38.6368	-75.6357	19.5657	-50.6779	-91.8504	80.9924	-50.2502	-64.9532	63.7801	-62.4667	-79.0988	51.4212	-86.2298	-95.8877	96.8454	-58.0271	-52.3492	89.7972	-74.5495	-67.5374	81.1059	-95.4317	-83.3736	115.061	-66.9291	-35.9872	115.679	-86.9194	-43.533	115.392	-100.89	-53.7444	121.586	-24.8389	-29.3962	135.138	-4.86204	-12.2871	105.369	7.62533	-26.794	
71	0.591667	95.9378	34.6462	-3.30723	73.6889	43.6494	-18.5329	48.8155	42.0473	-37.3795	30.4448	49.9394	-49.3343	58.7862	-1.83598	-60.7184	38.5456	-7.48126	-77.2127	21.6192	-7.04509	-91.6304	65.7722	-29.3937	-62.8636	49.3773	-37.5725	-76.0478	23.7535	-52.2374	-95.3611	78.3169	-46.7992	-46.806	66.681	-62.2397	-58.1372	48.0715	-77.4361	-76.4894	90.8717	-59.6264	-23.0992	81.1663	-74.3196	-32.0322	73.5407	-92.1308	-39.2364	118.908	-22.8066	-22.1436	138.437	-7.9835	-2.08906	115.023	13.7879	-18.7044	
72	0.6	116.677	45.825	-1.67747	97.1963	59.7644	-24.0495	78.7741	69.7248	-43.912	66.4288	82.2687	-56.6864	70.6645	22.4806	-61.1428	50.5518	27.8525	-82.8671	34.5159	30.5572	-100.168	63.2113	-4.43687	-61.5049	42.8832	-8.24519	-77.5259	19.4401	-7.76243	-95.7305	66.7498	-21.989	-44.0563	46.5651	-28.8714	-60.1166	25.8854	-41.3515	-72.7394	69.3787	-36.0213	-20.3345	49.6014	-48.8839	-29.0055	36.0948	-65.6762	-35.339	110.398	-16.4594	-18.6448	129.976	-14.2904	-0.7941	120.586	18.4963	-21.6914	
73	0.608333	133.178	48.4618	-6.01739	128.098	69.3643	-25.6573	114.81	83.1345	-46.843	111.761	97.1954	-61.4911	87.4736	44.7693	-66.2862	77.2865	57.7425	-85.984	66.5763	61.7762	-105.027	69.1707	22.9686	-64.0604	51.7227	27.7055	-78.6091	30.7769	34.2138	-101.565	63.0328	6.99443	-45.244	41.5152	3.30575	-60.5584	21.2346	3.12147	-76.3765	55.9013	-6.51141	-19.5415	35.0741	-11.9554	-25.9045	16.8249	-20.6835	-37.0756	101.534	-2.71623	-18.1894	123.11	-9.40255	4.66418	129.64	20.032	-17.7511	
74	0.616667	151.197	38.2779	-2.5843	152.041	56.3749	-26.803	152.965	72.0868	-48.1209	155.876	85.548	-65.4722	113.257	46.8738	-69.0279	109.749	58.404	-91.4916	102.411	61.5209	-110.367	86.7664	35.0027	-67.7075	72.3511	43.23	-86.1395	60.9524	49.7296	-108.907	72.8176	23.5394	-48.007	53.2889	28.7819	-67.5968	41.238	30.3087	-82.4156	59.6553	17.6359	-23.53	39.1783	20.0918	-34.3023	23.3929	17.8493	-46.4083	99.0344	1.21672	-16.2032	116.698	-9.66217	10.2276	134.666	11.36	-17.7478	
75	0.625	171.783	9.46411	2.88944	184.14	22.0438	-18.1519	194.309	33.2971	-41.7955	205.854	41.7271	-61.5624	150.485	14.8486	-71.8238	154.525	22.261	-93.5628	158.014	23.7948	-115.472	124.264	8.34979	-70.4582	118.138	16.7011	-97.3424	110.962	21.7025	-126.68	99.013	7.40265	-59.7537	93.3665	10.6629	-76.3099	80.7245	12.7906	-99.4931	83.217	9.57748	-32.8287	68.5728	14.0939	-44.5601	51.3759	12.2749	-61.0622	112.669	-14.0928	-14.9338	120.45	-22.3114	15.0207	151.205	-15.6734	-10.6821	
76	0.633333	190.717	-21.5969	18.1602	210.505	-14.6372	-7.1744	224.969	-7.38602	-27.3781	241.266	-1.53464	-42.1684	183.66	-35.6301	-56.731	199.561	-33.1019	-80.0973	204.331	-32.8542	-108.681	160.712	-40.7088	-64.8449	160.577	-40.0764	-92.5631	164.482	-37.4342	-121.527	137.072	-36.3264	-55.358	131.303	-39.2049	-81.6494	126.871	-39.5922	-104.751	114.019	-26.555	-38.8823	101.815	-25.9137	-54.9481	89.6906	-29.4847	-76.4783	137.307	-44.2479	-4.53206	132.401	-49.3481	19.9328	168.383	-47.0983	9.25293	
77	0.641667	206.537	-28.7503	27.5975	223.177	-20.4171	7.02414	243.881	-15.7954	-12.8443	259.992	-8.99754	-28.5428	218.625	-56.9941	-43.72	231.016	-57.2102	-65.8517	239.359	-58.904	-90.4465	191.078	-67.6686	-52.9082	200.256	-71.224	-76.9467	203.494	-75.4065	-108.748	164.396	-68.0813	-50.9881	169.888	-72.4362	-70.1705	170.391	-78.628	-94.8152	136.202	-56.2536	-35.6183	128.164	-61.9112	-56.0663	119.826	-68.3704	-78.5486	159.375	-63.0766	-0.422382	150.652	-62.4419	26.3659	185.864	-58.417	17.8633	
78	0.65	212.267	-14.1301	33.3782	228.74	-1.41163	14.143	250.908	7.35414	-11.0593	260.365	14.7632	-27.6276	233.282	-43.358	-34.6286	252.85	-40.8386	-55.9837	262.357	-42.6119	-80.2217	216.365	-62.1022	-41.3626	225.933	-68.6882	-68.2184	238.204	-71.2572	-96.5978	192.195	-70.5258	-42.4938	198.551	-80.0333	-64.3079	205.184	-85.0424	-88.451	162.602	-70.4004	-34.4725	157.748	-78.6388	-49.6312	158.225	-89.4385	-70.2521	182.712	-66.0496	6.63215	174.782	-64.1582	35.4838	204.883	-49.7723	23.3885	
